HIERARCHY
ROOT Hips
{
	OFFSET 0.000000 0.000000 0.000000
	CHANNELS 6 Xposition Yposition Zposition Zrotation Yrotation Xrotation 
	JOINT LowerBack
	{
		OFFSET 0.000000 0.000000 0.000000
		CHANNELS 3 Zrotation Yrotation Xrotation
		JOINT Spine
		{
			OFFSET 0.028270 2.035590 -0.193380
			CHANNELS 3 Zrotation Yrotation Xrotation
			JOINT Spine1
			{
				OFFSET 0.056720 2.048850 -0.042750
				CHANNELS 3 Zrotation Yrotation Xrotation
				JOINT Neck
				{
					OFFSET 0.000000 0.000000 0.000000
					CHANNELS 3 Zrotation Yrotation Xrotation
					JOINT Neck1
					{
						OFFSET -0.054170 1.746240 0.172020
						CHANNELS 3 Zrotation Yrotation Xrotation
						JOINT Head
						{
							OFFSET 0.104070 1.761360 -0.123970
							CHANNELS 3 Zrotation Yrotation Xrotation
							End Site
							{
								OFFSET 0.000000 0.000000 0.000000
							}
						}
					}
				}
				JOINT LeftShoulder
				{
					OFFSET 0.000000 0.000000 0.000000
					CHANNELS 3 Zrotation Yrotation Xrotation
					JOINT LeftArm
					{
						OFFSET 3.362410 1.200890 -0.311210
						CHANNELS 3 Zrotation Yrotation Xrotation
						JOINT LeftForeArm
						{
							OFFSET 4.983000 -0.000000 -0.000000
							CHANNELS 3 Zrotation Yrotation Xrotation
							JOINT LeftHand
							{
								OFFSET 3.483560 -0.000000 -0.000000
								CHANNELS 3 Zrotation Yrotation Xrotation
								JOINT LeftFingerBase
								{
									OFFSET 0.000000 0.000000 0.000000
									CHANNELS 3 Zrotation Yrotation Xrotation
									JOINT LeftHandIndex1
									{
										OFFSET 0.715260 -0.000000 -0.000000
										CHANNELS 3 Zrotation Yrotation Xrotation
										End Site
										{
											OFFSET 0.000000 0.000000 0.000000
										}
									}
								}
								JOINT LThumb
								{
									OFFSET 0.000000 0.000000 0.000000
									CHANNELS 3 Zrotation Yrotation Xrotation
									End Site
									{
										OFFSET 0.000000 0.000000 0.000000
									}
								}
							}
						}
					}
				}
				JOINT RightShoulder
				{
					OFFSET 0.000000 0.000000 0.000000
					CHANNELS 3 Zrotation Yrotation Xrotation
					JOINT RightArm
					{
						OFFSET -3.136600 1.374050 -0.404650
						CHANNELS 3 Zrotation Yrotation Xrotation
						JOINT RightForeArm
						{
							OFFSET -5.241900 -0.000000 -0.000000
							CHANNELS 3 Zrotation Yrotation Xrotation
							JOINT RightHand
							{
								OFFSET -3.444170 -0.000000 -0.000000
								CHANNELS 3 Zrotation Yrotation Xrotation
								JOINT RightFingerBase
								{
									OFFSET 0.000000 0.000000 0.000000
									CHANNELS 3 Zrotation Yrotation Xrotation
									JOINT RightHandIndex1
									{
										OFFSET -0.622530 -0.000000 -0.000000
										CHANNELS 3 Zrotation Yrotation Xrotation
										End Site
										{
											OFFSET 0.000000 0.000000 0.000000
										}
									}
								}
								JOINT RThumb
								{
									OFFSET 0.000000 0.000000 0.000000
									CHANNELS 3 Zrotation Yrotation Xrotation
									End Site
									{
										OFFSET 0.000000 0.000000 0.000000
									}
								}
							}
						}
					}
				}
			}
		}
	}
}
}
MOTION
Frames: 18
Frame Time: 0.008333
-12.110504 17.011004 -0.950747 29.378535 87.646366 39.735053 1.799409 -7.069074 -7.935882 0.343932 -7.423986 -3.929514 -5.758378 -7.475771 1.963995 10.699406 -21.411762 -10.198396 -3.355401 -0.238274 -0.568417 0.000000 0.000000 0.000000 -0.262796 4.883192 0.095553 -63.418128 -9.670089 2.249413 -1.950043 -60.055541 -0.037579 9.706994 -2.935469 -0.275292 -0.130462 0.287570 -0.000000 0.000000 0.000000 0.000000 0.000000 0.000000 0.000000 18.018905 -20.565616 -0.653791 63.034399 -9.012858 -16.282700 1.717644 56.237045 0.003228 -4.125475 5.468242 -0.208086 0.129709 -0.150132 0.000000 0.000000 0.000000 0.000000 0.000000 0.000000 0.000000 
-11.944713 17.032200 -0.941065 13.466552 87.102481 23.715732 2.204769 -6.774552 -7.897144 0.396016 -7.174778 -3.939598 -5.781574 -7.226045 1.929823 10.685615 -21.272816 -10.153173 -3.349946 -0.238604 -0.555898 0.000000 0.000000 0.000000 -0.409331 5.043715 0.078252 -64.007850 -9.156864 2.118739 -1.974822 -59.417576 -0.036336 9.663458 -2.940618 -0.273878 -0.127531 0.279602 -0.000000 0.000000 0.000000 0.000000 0.000000 0.000000 0.000000 17.922561 -20.275654 -0.647293 62.806002 -8.595457 -16.091005 1.703081 56.509716 0.003052 -4.157140 5.506767 -0.211176 0.130235 -0.153616 0.000000 0.000000 0.000000 0.000000 0.000000 0.000000 0.000000 
-11.781688 17.052739 -0.930004 -2.043905 86.709987 8.096209 2.862863 -6.513065 -7.821465 0.506548 -6.992593 -3.940224 -5.816543 -7.045506 1.892313 10.686462 -21.129125 -10.107720 -3.346951 -0.239139 -0.543651 0.000000 0.000000 0.000000 -0.504757 5.154157 0.069233 -64.634878 -8.628348 1.979438 -1.997116 -58.726730 -0.035186 9.622218 -2.927459 -0.270859 -0.124510 0.271842 0.000000 0.000000 0.000000 0.000000 0.000000 0.000000 0.000000 17.846925 -20.011517 -0.649619 62.602392 -8.145255 -15.820907 1.684513 56.788602 0.002856 -4.159546 5.529020 -0.212272 0.130022 -0.156765 0.000000 0.000000 0.000000 0.000000 0.000000 0.000000 0.000000 
-11.621600 17.072187 -0.917732 -15.334733 86.602266 -5.305196 3.489981 -6.378445 -7.730193 0.624957 -6.934479 -3.933859 -5.844141 -6.990455 1.856310 10.699320 -20.979825 -10.060131 -3.346450 -0.239927 -0.531025 0.000000 0.000000 0.000000 -0.551194 5.189268 0.076148 -65.278332 -8.094843 1.845941 -2.020641 -57.988843 -0.034110 9.583607 -2.896236 -0.266523 -0.122162 0.264543 0.000000 0.000000 0.000000 0.000000 0.000000 0.000000 0.000000 17.795766 -19.803175 -0.668901 62.429825 -7.673821 -15.479329 1.659187 57.084914 0.002634 -4.133587 5.535315 -0.211272 0.128770 -0.159363 0.000000 0.000000 0.000000 0.000000 0.000000 0.000000 0.000000 
-11.464459 17.090236 -0.904155 -25.570744 86.610150 -15.646110 3.905379 -6.321744 -7.639273 0.706236 -6.928361 -3.924386 -5.862818 -6.987261 1.824823 10.729526 -20.827377 -10.014307 -3.346782 -0.240752 -0.518932 0.000000 0.000000 0.000000 -0.554153 5.197578 0.090684 -65.915319 -7.555896 1.724322 -2.044768 -57.221872 -0.033047 9.548223 -2.849092 -0.260982 -0.120390 0.257266 0.000000 0.000000 0.000000 0.000000 0.000000 0.000000 0.000000 17.773051 -19.618151 -0.696769 62.288361 -7.171161 -15.059060 1.630600 57.399062 0.002403 -4.085720 5.526895 -0.208574 0.126925 -0.161671 0.000000 0.000000 0.000000 0.000000 0.000000 0.000000 0.000000 
-11.310260 17.106640 -0.889866 -33.810678 86.617221 -23.975999 4.181714 -6.283596 -7.551097 0.758463 -6.923396 -3.914195 -5.880334 -6.984618 1.796237 10.773445 -20.667448 -9.972426 -3.347323 -0.241521 -0.507942 0.000000 0.000000 0.000000 -0.533029 5.211419 0.108539 -66.532841 -7.013562 1.617041 -2.068257 -56.440815 -0.031992 9.515787 -2.789595 -0.254440 -0.118874 0.249841 0.000000 0.000000 0.000000 0.000000 0.000000 0.000000 0.000000 17.768709 -19.424990 -0.725602 62.175048 -6.634250 -14.566797 1.601205 57.729380 0.002182 -4.019841 5.508205 -0.204573 0.124792 -0.163944 0.000000 0.000000 0.000000 0.000000 0.000000 0.000000 0.000000 
-11.158910 17.121332 -0.875127 -40.615616 86.598435 -30.849553 4.375704 -6.242998 -7.468004 0.790986 -6.905779 -3.904227 -5.900914 -6.968683 1.770359 10.829617 -20.500517 -9.936484 -3.348295 -0.242232 -0.498596 0.000000 0.000000 0.000000 -0.502442 5.243234 0.129090 -67.118235 -6.473554 1.532455 -2.090817 -55.655655 -0.030937 9.485626 -2.722250 -0.247397 -0.117482 0.242266 0.000000 0.000000 0.000000 0.000000 0.000000 0.000000 0.000000 17.780945 -19.216205 -0.753327 62.083802 -6.060631 -14.007475 1.571757 58.072761 0.001975 -3.945667 5.484953 -0.200071 0.122556 -0.166280 0.000000 0.000000 0.000000 0.000000 0.000000 0.000000 0.000000 
-11.010357 17.134301 -0.860229 -46.526437 86.558654 -36.804958 4.526202 -6.195679 -7.391766 0.811614 -6.876108 -3.895099 -5.926281 -6.940128 1.746884 10.895069 -20.325020 -9.906918 -3.350239 -0.242933 -0.491034 0.000000 0.000000 0.000000 -0.476896 5.296900 0.153286 -67.661204 -5.941524 1.479021 -2.112698 -54.874725 -0.029875 9.456373 -2.651894 -0.240055 -0.116184 0.234602 0.000000 0.000000 0.000000 0.000000 0.000000 0.000000 0.000000 17.807589 -18.989988 -0.779696 62.009010 -5.450029 -13.389910 1.542388 58.423609 0.001767 -3.873891 5.464082 -0.195767 0.120321 -0.168732 0.000000 0.000000 0.000000 0.000000 0.000000 0.000000 0.000000 
-10.864521 17.145690 -0.845463 -51.867915 86.504956 -42.166203 4.652732 -6.141585 -7.323377 0.824557 -6.836767 -3.887183 -5.957051 -6.901397 1.725520 10.967275 -20.139241 -9.883415 -3.353740 -0.243679 -0.485198 0.000000 0.000000 0.000000 -0.468212 5.373386 0.181907 -68.153223 -5.421310 1.463436 -2.134190 -54.104549 -0.028796 9.426535 -2.583177 -0.232908 -0.114968 0.226898 0.000000 0.000000 0.000000 0.000000 0.000000 0.000000 0.000000 17.847523 -18.745952 -0.804671 61.946170 -4.802785 -12.723789 1.513289 58.773881 0.001551 -3.814820 5.452067 -0.192361 0.118183 -0.171334 0.000000 0.000000 0.000000 0.000000 0.000000 0.000000 0.000000 
-10.721336 17.155725 -0.831009 -56.791433 86.441638 -47.085727 4.764163 -6.080701 -7.262445 0.831747 -6.788852 -3.880516 -5.993436 -6.853616 1.705984 11.044300 -19.941110 -9.865139 -3.359423 -0.244533 -0.480904 0.000000 0.000000 0.000000 -0.485110 5.473709 0.215219 -68.587949 -4.914958 1.489899 -2.155473 -53.350617 -0.027692 9.394324 -2.520481 -0.226360 -0.113823 0.219176 0.000000 0.000000 0.000000 0.000000 0.000000 0.000000 0.000000 17.900801 -18.483062 -0.828135 61.890467 -4.119174 -12.017808 1.484801 59.113841 0.001314 -3.778255 5.454583 -0.190653 0.116237 -0.174107 0.000000 0.000000 0.000000 0.000000 0.000000 0.000000 0.000000 
-10.580721 17.164659 -0.816981 -61.375562 86.369970 -51.643071 4.866436 -6.012701 -7.209366 0.834566 -6.732805 -3.875402 -6.035201 -6.797279 1.687597 11.123285 -19.726997 -9.850049 -3.367737 -0.245557 -0.477624 0.000000 0.000000 0.000000 -0.533796 5.596739 0.253178 -68.962274 -4.420213 1.558227 -2.176539 -52.617906 -0.026548 9.358168 -2.466903 -0.220407 -0.112722 0.211438 0.000000 0.000000 0.000000 0.000000 0.000000 0.000000 0.000000 17.965184 -18.198492 -0.849738 61.840403 -3.401065 -11.281892 1.457434 59.432012 0.001049 -3.769535 5.476416 -0.190943 0.114544 -0.177070 0.000000 0.000000 0.000000 0.000000 0.000000 0.000000 0.000000 
-10.442711 17.172836 -0.803224 -65.514476 86.293319 -55.738138 4.953598 -5.936451 -7.158905 0.831592 -6.666841 -3.870609 -6.082488 -6.730626 1.670449 11.205539 -19.496347 -9.837302 -3.379236 -0.246794 -0.475202 0.000000 0.000000 0.000000 -0.612848 5.744430 0.294998 -69.275226 -3.938260 1.667122 -2.197352 -51.906291 -0.025359 9.317482 -2.424969 -0.215351 -0.111647 0.203657 0.000000 0.000000 0.000000 0.000000 0.000000 0.000000 0.000000 18.045440 -17.891815 -0.869353 61.791926 -2.647304 -10.519170 1.431706 59.717484 0.000741 -3.795671 5.518993 -0.193731 0.113194 -0.180194 0.000000 0.000000 0.000000 0.000000 0.000000 0.000000 0.000000 
-10.307224 17.180564 -0.789664 -69.224391 86.213513 -59.388940 5.026655 -5.851448 -7.110617 0.823300 -6.590670 -3.866180 -6.134535 -6.653452 1.653909 11.288818 -19.245728 -9.824268 -3.393991 -0.248278 -0.472946 0.000000 0.000000 0.000000 -0.721431 5.914336 0.340085 -69.529726 -3.464389 1.810103 -2.217759 -51.217090 -0.024121 9.271793 -2.395497 -0.211294 -0.110571 0.195817 0.000000 0.000000 0.000000 0.000000 0.000000 0.000000 0.000000 18.138828 -17.560107 -0.886506 61.745506 -1.861119 -9.736224 1.408212 59.959485 0.000393 -3.854667 5.582442 -0.198918 0.112182 -0.183451 0.000000 0.000000 0.000000 0.000000 0.000000 0.000000 0.000000 
-10.174270 17.188137 -0.776063 -72.459299 86.135155 -62.553963 5.079823 -5.757497 -7.061195 0.808696 -6.503513 -3.861301 -6.190615 -6.565062 1.638014 11.373315 -18.973748 -9.809312 -3.411944 -0.250012 -0.470449 0.000000 0.000000 0.000000 -0.853448 6.106707 0.387566 -69.730767 -2.996923 1.979492 -2.237728 -50.547671 -0.022840 9.221215 -2.378009 -0.208034 -0.109485 0.187895 0.000000 0.000000 0.000000 0.000000 0.000000 0.000000 0.000000 18.246069 -17.202231 -0.901067 61.700606 -1.043920 -8.934731 1.387386 60.149486 0.000004 -3.944132 5.664217 -0.206403 0.111498 -0.186789 0.000000 0.000000 0.000000 0.000000 0.000000 0.000000 0.000000 
-10.043687 17.195749 -0.762412 -75.277308 86.058431 -65.289690 5.116592 -5.654512 -7.014768 0.789119 -6.405902 -3.857037 -6.248985 -6.466120 1.621941 11.454361 -18.676720 -9.789032 -3.432390 -0.251985 -0.466749 0.000000 0.000000 0.000000 -1.005243 6.315803 0.436842 -69.885536 -2.526065 2.162585 -2.256983 -49.899223 -0.021525 9.166274 -2.370913 -0.205572 -0.108359 0.179882 0.000000 0.000000 0.000000 0.000000 0.000000 0.000000 0.000000 18.357879 -16.814928 -0.912332 61.662563 -0.201554 -8.122230 1.369795 60.279245 -0.000403 -4.050489 5.760755 -0.215486 0.111021 -0.190166 0.000000 0.000000 0.000000 0.000000 0.000000 0.000000 0.000000 
-9.915426 17.203589 -0.748335 -77.614769 85.991892 -67.537587 5.125747 -5.542945 -6.966875 0.762503 -6.297102 -3.852079 -6.308686 -6.355984 1.606488 11.533992 -18.355550 -9.762975 -3.454941 -0.254153 -0.461762 0.000000 0.000000 0.000000 -1.165872 6.544482 0.486925 -70.002302 -2.053743 2.351153 -2.275731 -49.265346 -0.020176 9.108150 -2.372022 -0.203708 -0.107214 0.171764 0.000000 0.000000 0.000000 0.000000 0.000000 0.000000 0.000000 18.476802 -16.399122 -0.920531 61.629983 0.664708 -7.295028 1.355573 60.346240 -0.000825 -4.167491 5.865444 -0.225568 0.110699 -0.193496 0.000000 0.000000 0.000000 0.000000 0.000000 0.000000 0.000000 
-9.789326 17.211771 -0.733701 -79.502393 85.938658 -69.328170 5.106012 -5.423305 -6.919800 0.729210 -6.177662 -3.846661 -6.367853 -6.235310 1.592479 11.610257 -18.011434 -9.730632 -3.478520 -0.256434 -0.455328 0.000000 0.000000 0.000000 -1.328567 6.794691 0.537077 -70.090385 -1.579671 2.536108 -2.294220 -48.640862 -0.018813 9.048324 -2.378624 -0.202243 -0.106072 0.163555 0.000000 0.000000 0.000000 0.000000 0.000000 0.000000 0.000000 18.597307 -15.956049 -0.925774 61.604699 1.552380 -6.452384 1.344869 60.349218 -0.001236 -4.282946 5.972036 -0.235850 0.110421 -0.196722 0.000000 0.000000 0.000000 0.000000 0.000000 0.000000 0.000000 
-9.665117 17.220289 -0.718571 -80.972027 85.899225 -70.691484 5.059402 -5.295459 -6.878187 0.690207 -6.047896 -3.841925 -6.424731 -6.104533 1.579207 11.679279 -17.642914 -9.689821 -3.502037 -0.258769 -0.446786 0.000000 0.000000 0.000000 -1.488379 7.061289 0.586893 -70.158443 -1.095397 2.704656 -2.312279 -48.027275 -0.017448 8.987305 -2.387201 -0.200978 -0.104921 0.155272 0.000000 0.000000 0.000000 0.000000 0.000000 0.000000 0.000000 18.709491 -15.483909 -0.927553 61.592066 2.454091 -5.600784 1.337729 60.290568 -0.001604 -4.379233 6.074753 -0.245231 0.110015 -0.199822 0.000000 0.000000 0.000000 0.000000 0.000000 0.000000 0.000000 
